HIERARCHY
ROOT Hips
{
	OFFSET -3.958830 18.904000 13.208200
	CHANNELS 6 Xposition Yposition Zposition Zrotation Yrotation Xrotation 
	JOINT LHipJoint
	{
		OFFSET 0.000000 0.000000 0.000000
		CHANNELS 3 Zrotation Yrotation Xrotation
		JOINT LeftUpLeg
		{
			OFFSET 1.800000 -1.400000 0.085000
			CHANNELS 3 Zrotation Yrotation Xrotation
			JOINT LeftLeg
			{
				OFFSET 2.215000 -6.000000 0.000000
				CHANNELS 3 Zrotation Yrotation Xrotation
				JOINT LeftFoot
				{
					OFFSET 2.500000 -6.900000 0.000000
					CHANNELS 3 Zrotation Yrotation Xrotation
					JOINT LeftToeBase
					{
						OFFSET 0.200000 -0.500000 1.950000
						CHANNELS 3 Zrotation Yrotation Xrotation
						End Site
						{
							OFFSET 0.000000 0.000000 0.000000
						}
					}
				}
			}
		}
	}
	JOINT RHipJoint
	{
		OFFSET 0.000000 0.000000 0.000000
		CHANNELS 3 Zrotation Yrotation Xrotation
		JOINT RightUpLeg
		{
			OFFSET -1.800000 -1.400000 0.085000
			CHANNELS 3 Zrotation Yrotation Xrotation
			JOINT RightLeg
			{
				OFFSET -2.215000 -6.000000 0.000000
				CHANNELS 3 Zrotation Yrotation Xrotation
				JOINT RightFoot
				{
					OFFSET -2.500000 -6.900000 0.000000
					CHANNELS 3 Zrotation Yrotation Xrotation
					JOINT RightToeBase
					{
						OFFSET -0.200000 -0.500000 1.950000
						CHANNELS 3 Zrotation Yrotation Xrotation
						End Site
						{
							OFFSET 0.000000 0.000000 0.000000
						}
					}
				}
			}
		}
	}
	JOINT LowerBack
	{
		OFFSET 0.000000 0.000000 0.000000
		CHANNELS 3 Zrotation Yrotation Xrotation
		JOINT Spine
		{
			OFFSET -0.087000 1.940000 -0.288900
			CHANNELS 3 Zrotation Yrotation Xrotation
			JOINT Spine1
			{
				OFFSET 0.000000 1.950000 0.060000
				CHANNELS 3 Zrotation Yrotation Xrotation
				JOINT Neck
				{
					OFFSET 0.000000 0.000000 0.000000
					CHANNELS 3 Zrotation Yrotation Xrotation
					JOINT Neck1
					{
						OFFSET 0.000000 1.600000 0.340000
						CHANNELS 3 Zrotation Yrotation Xrotation
						JOINT Head
						{
							OFFSET 0.000000 1.667000 -0.240000
							CHANNELS 3 Zrotation Yrotation Xrotation
							End Site
							{
								OFFSET 0.000000 0.000000 0.000000
							}
						}
					}
				}
				JOINT LeftShoulder
				{
					OFFSET 0.000000 0.000000 0.000000
					CHANNELS 3 Zrotation Yrotation Xrotation
					JOINT LeftArm
					{
						OFFSET 2.700000 1.550000 -0.730000
						CHANNELS 3 Zrotation Yrotation Xrotation
						JOINT LeftForeArm
						{
							OFFSET 5.450000 0.000000 0.000000
							CHANNELS 3 Zrotation Yrotation Xrotation
							JOINT LeftHand
							{
								OFFSET 3.450000 0.000000 0.000000
								CHANNELS 3 Zrotation Yrotation Xrotation
								JOINT LeftHandIndex1
								{
									OFFSET 0.750000 0.000000 0.000000
									CHANNELS 3 Zrotation Yrotation Xrotation
									End Site
									{
										OFFSET 0.000000 0.000000 0.000000
									}
								}
							}
						}
					}
				}
				JOINT RightShoulder
				{
					OFFSET 0.000000 0.000000 0.000000
					CHANNELS 3 Zrotation Yrotation Xrotation
					JOINT RightArm
					{
						OFFSET -2.700000 1.550000 -0.730000
						CHANNELS 3 Zrotation Yrotation Xrotation
						JOINT RightForeArm
						{
							OFFSET -5.450000 0.000000 0.000000
							CHANNELS 3 Zrotation Yrotation Xrotation
							JOINT RightHand
							{
								OFFSET -3.450000 0.000000 0.000000
								CHANNELS 3 Zrotation Yrotation Xrotation
								JOINT RightHandIndex1
								{
									OFFSET -0.750000 0.000000 0.000000
									CHANNELS 3 Zrotation Yrotation Xrotation
									End Site
									{
										OFFSET 0.000000 0.000000 0.000000
									}
								}
							}
						}
					}
				}
			}
		}
	}
}
MOTION
Frames: 6
Frame Time: 0.016667
23.011850 15.982470 -6.713370 5.185609 9.257124 -3.302068 -15.526845 12.783537 3.313316 4.506527 -3.689432 -7.558069 -18.725404 16.482054 37.486808 0.620607 9.287346 1.280270 0.758230 0.472680 0.770690 18.004630 -9.208411 4.148193 -10.584649 2.624437 -42.819149 -0.017440 -1.709038 -2.981640 -0.321592 -1.172461 3.687756 0.218780 -0.234650 0.359980 -2.799367 -2.248296 -8.862499 8.849549 -4.816046 24.999125 3.496114 -3.707909 3.296106 5.052706 7.408983 -12.297790 13.345493 -12.891329 34.329098 -1.652030 -5.228420 -30.905430 -24.804360 -18.736550 6.512612 -42.003632 -6.870874 -5.294262 0.435142 -25.065869 -2.086991 -3.387727 2.863287 0.876370 -0.254400 0.492660 0.106300 14.994904 18.342926 6.198689 43.903299 15.855859 -10.487272 -25.381204 28.932906 -8.538325 2.035134 -1.240636 -0.017580 0.183180 -0.192270 -0.292160 
22.986630 15.923230 -6.631010 5.282395 8.651856 -2.865192 -15.492820 12.598375 3.408564 5.692040 -4.078204 -7.957585 -20.976261 17.739310 37.792238 0.669708 9.762544 1.120479 0.695000 0.368340 0.752230 18.052479 -9.139784 4.200610 -10.846948 2.694816 -43.527924 0.602025 -1.746359 -3.188674 -0.302205 -1.190484 3.670384 0.180700 -0.213850 0.357260 -2.899697 -2.047822 -8.948346 9.492304 -5.299838 24.902918 2.181116 -3.824037 2.708325 5.338249 7.650071 -12.371529 14.020969 -13.003620 34.341706 -1.688430 -5.177800 -30.494060 -25.268020 -18.508769 6.524828 -42.748314 -6.055428 -5.565784 1.870578 -24.304871 -2.381426 -3.424121 2.824038 0.915600 -0.244640 0.462750 0.067310 14.647567 17.906174 6.329501 46.436655 15.325225 -10.366490 -26.150141 27.018116 -8.354422 2.038215 -1.225850 -0.070250 0.190600 -0.133360 -0.327880 
22.942490 15.891980 -6.553810 3.947009 6.006907 -3.762767 -15.428794 12.709844 3.477865 8.102186 -3.570805 -7.042719 -22.487437 18.784981 37.352585 0.817343 9.986854 1.051012 0.694790 0.372290 0.746730 18.081026 -9.095755 4.230709 -9.268670 3.852976 -42.602233 1.494268 -1.517102 -3.407762 -0.297588 -0.993557 3.756575 0.139530 -0.264450 0.343540 -3.010449 -2.264811 -9.069749 12.594054 -5.832898 26.580515 0.850241 -3.257202 2.961106 5.422278 6.062246 -12.974406 10.592965 -12.487089 37.999514 -0.916090 -6.077600 -31.556790 -27.532171 -19.993315 6.956393 -41.406023 -5.494870 -5.375315 2.896467 -21.270045 -2.366175 -3.344355 2.847795 0.921350 -0.309840 0.496700 0.064720 16.443606 20.661592 7.319767 43.919214 13.742590 -11.435636 -26.238149 26.209731 -8.079080 2.102376 -1.227455 -0.023280 0.167080 -0.153180 -0.302270 
22.881420 15.827290 -6.436220 3.971977 6.127775 -4.150090 -15.444380 12.792376 3.528910 9.448235 -3.680657 -5.846191 -23.311117 19.241634 37.189140 0.815612 10.192995 0.973212 0.722320 0.351390 0.812550 18.059736 -9.044512 4.188893 -9.706349 3.609899 -43.186882 1.880229 -1.739615 -1.523489 -0.322089 -0.938253 3.734355 0.133250 -0.313470 0.357700 -2.955732 -2.511827 -9.084249 12.728516 -6.475546 27.303359 0.040772 -3.704925 3.097255 5.879914 5.875585 -13.218727 10.071614 -12.061135 39.142544 -1.429790 -5.628280 -32.981250 -27.302587 -20.531273 7.066135 -41.601097 -5.779759 -5.115411 4.661038 -19.310642 -2.571142 -3.319608 2.841088 0.998380 -0.352670 0.530020 0.046930 15.213807 21.082132 7.673824 45.510726 13.374635 -11.114951 -25.671151 24.507228 -7.479436 2.113956 -1.223484 -0.040580 0.153380 -0.158160 -0.347590 
22.815500 15.786250 -6.327070 3.242314 5.637293 -5.115701 -15.403861 12.861368 3.538509 11.198133 -3.836177 -4.761713 -23.273021 19.630608 37.758495 0.948084 10.318419 0.931996 0.758360 0.433350 0.752950 18.090155 -8.905269 4.320746 -12.902668 3.407307 -44.536106 7.289045 -2.538843 3.542614 -0.374030 -1.214099 3.616694 0.133860 -0.330810 0.365020 -3.046763 -2.792061 -9.129250 14.363263 -7.859852 28.979317 -1.064257 -4.367597 3.512245 5.753114 4.003841 -13.320314 6.035180 -10.846835 41.280205 1.635000 -6.518630 -34.352920 -27.683045 -21.035346 7.109116 -40.846058 -5.823004 -5.321044 6.994653 -18.849050 -2.794122 -3.234146 2.924785 0.972510 -0.401240 0.564640 0.093460 15.779751 22.545382 8.087686 42.963729 13.086282 -10.550546 -23.775626 22.637206 -6.345896 2.181100 -1.242662 0.037310 0.125070 -0.192570 -0.276300 
22.705550 15.719820 -6.136420 4.360649 6.569543 -5.822444 -15.528156 13.114813 3.534810 12.163746 -3.789654 -2.304599 -23.127508 19.583455 37.225271 1.000312 10.303558 0.955953 0.772290 0.451780 0.792510 17.956941 -8.804388 4.256807 -14.351658 2.336433 -44.671485 7.547907 -2.992588 5.362285 -0.411712 -1.358164 3.575317 0.117690 -0.378100 0.349410 -2.686273 -3.399378 -9.152004 11.345195 -7.348169 30.275395 0.289821 -4.513424 1.684044 5.849512 4.516179 -13.269720 6.801175 -11.257484 43.152982 0.753210 -6.189970 -35.076420 -28.625072 -19.761549 6.696814 -38.938471 -4.918043 -5.260456 6.456332 -18.663874 -2.552569 -3.202995 2.897734 0.988420 -0.429690 0.598930 0.090890 16.673382 21.001314 7.979329 42.129851 11.069158 -10.227212 -22.886587 21.894643 -5.664594 2.219748 -1.198348 0.054230 0.118390 -0.228010 -0.286390 
